# xmcd
#
# Track frame offsets:
# 150
# 11535
# 24678
# 49118
# 88912
# 117895
#
# Disc length: 2581 seconds
#
# Revision: 0
# Processed by: cddbd v1.5.1PL2 Copyright (c) Steve Scherf et al.
# Submitted via: Audion 3.0.2 (http://www.panic.com/audion/)
#
DISCID=450a1306
DTITLE=Anna Veleva - Famous Opera Arias
DYEAR=1900
DGENRE=
TTITLE0=Puccini: Gianni Schicchi - O mio babbino caro
TTITLE1=Puccini: La Boheme - Quando men vo
TTITLE2=Verdi: Rigoletto - Caro nome
TTITLE3=donizetti: Lucia di Lammermoor - regniava nel silenzio
TTITLE4=Rossini: Il Barbiere di Siviglia - Una voce poco fa
TTITLE5=Donizetti: Lucia di Lammermoor - ardon gl"incensi
EXTD=
EXTT0=
EXTT1=
EXTT2=
EXTT3=
EXTT4=
EXTT5=
PLAYORDER=
